<?xml version="1.0" encoding="UTF-8"?>
<svg viewBox="0 0 239 64" version="1.1" xmlns="http://www.w3.org/2000/svg" xmlns:xlink="http://www.w3.org/1999/xlink">
    <!-- Generator: Sketch 53.2 (72643) - https://sketchapp.com -->
    <title>Jama_Connect_primary_gradient_ltbg_w Copy 2</title>
    <desc>Created with Sketch.</desc>
    <defs>
        <linearGradient x1="0%" y1="75.4253364%" x2="100%" y2="75.4253364%" id="linearGradient-1">
            <stop stop-color="#00B7E4" offset="0%"/>
            <stop stop-color="#0081C5" offset="100%"/>
        </linearGradient>
    </defs>
    <g id="Login" stroke="none" stroke-width="1" fill="none" fill-rule="evenodd">
        <g id="Connect-Message" transform="translate(-66.000000, -305.000000)" fill-rule="nonzero">
            <g id="Jama_Connect_primary_gradient_ltbg_w-Copy-2" transform="translate(66.000000, 305.000000)">
                <g id="Group" transform="translate(2.000000, 0.000000)">
                    <path d="M59.5404959,55.7346774 C59.4380165,55.7854839 47.2429752,62.6443548 47.0892562,62.7459677 C46.8842975,62.8475806 46.6793388,62.8475806 46.5256198,62.7459677 C46.3206612,62.6443548 40.6842975,59.4435484 39.0958678,58.5290323 C32.3834711,54.7185484 26.7983471,55.1758065 20.9057851,58.5290323 C19.3173554,59.4435484 13.6297521,62.6443548 13.4760331,62.7459677 C13.2710744,62.8475806 13.0661157,62.8475806 12.9123967,62.7459677 C12.707438,62.6443548 0.614876033,55.8362903 0.512396694,55.7854839 C0.153719008,55.5822581 0.153719008,55.125 0.512396694,54.9217742 C16.7553719,45.7258065 21.5206612,42.0169355 30.0264463,42.0677419 C30.7438017,42.0677419 30.0264463,42.0677419 30.0264463,42.0677419 L30.0264463,42.0677419 L30.0264463,42.0677419 C30.0264463,42.0677419 29.3090909,42.0677419 30.0264463,42.0677419 C38.5834711,42.0169355 43.707438,45.9290323 59.5917355,54.9217742 C59.8991736,55.0741935 59.8991736,55.5314516 59.5404959,55.7346774" id="Path" fill="#0081C5"/>
                    <g transform="translate(31.256198, 0.000000)" fill="url(#linearGradient-1)" id="SVGID_1_-link">
                        <g>
                            <path d="M0.409917355,0.762096774 C0.409917355,20.8814516 -0.153719008,23.7266129 2.92066116,30.7887097 C6.55867769,39.0701613 15.3719008,43.6427419 29.7702479,51.7209677 C29.9752066,51.8225806 30.385124,51.6193548 30.385124,51.3653226 L30.385124,37.3427419 C30.385124,36.9870968 30.231405,36.6314516 29.9239669,36.4282258 C24.338843,33.2782258 19.368595,30.7887097 16.4479339,26.6225806 C13.322314,22.1516129 13.8347107,18.5443548 13.7834711,8.02741935 C13.7834711,7.82419355 13.6809917,7.62096774 13.4760331,7.51935484 L1.1785124,0.30483871 C1.07603306,0.254032258 1.02479339,0.254032258 0.92231405,0.254032258 C0.666115702,0.254032258 0.409917355,0.457258065 0.409917355,0.762096774" id="SVGID_1_"/>
                        </g>
                    </g>
                </g>
                <g id="Group" fill="#00A9E0">
                    <path d="M0.258333333,52.1252427 C0.258333333,52.3825243 0.671666667,52.6398058 0.878333333,52.4854369 C15.345,44.2524272 24.2316667,39.6213592 27.9516667,31.2854369 C29.8633333,26.9631068 30.535,23.1553398 30.4833333,18.5757282 L30.4833333,0.874757282 C30.4833333,0.463106796 30.07,0.257281553 29.7083333,0.463106796 L28.1583333,1.38932039 C28.0033333,1.49223301 27.9,1.64660194 27.9,1.80097087 L27.9,18.5757282 C27.9516667,22.8980583 27.125,26.8087379 25.6266667,30.2048544 C22.165,38.0262136 13.2266667,42.3485437 0.723333333,49.6038835 C0.413333333,49.7582524 0.258333333,50.0669903 0.258333333,50.4271845 L0.258333333,52.1252427 Z" id="Path"/>
                    <path d="M17.3083333,7.82135922 C17.1016667,7.92427184 16.9983333,8.13009709 16.9983333,8.33592233 L16.9466667,17.7524272 C17.05,28.5582524 9.55833333,32.0058252 0.723333333,37.0485437 C0.413333333,37.2543689 0.258333333,37.5631068 0.258333333,37.9747573 L0.258333333,39.7242718 C0.258333333,39.9815534 0.516666667,40.1359223 0.775,40.0330097 C11.6766667,33.8582524 19.6333333,30.307767 19.53,16.9805825 L19.5816667,7.10097087 C19.5816667,6.84368932 19.2716667,6.68932039 19.065,6.79223301 L17.3083333,7.82135922 Z" id="Path"/>
                    <path d="M0.258333333,45.9504854 L0.258333333,44.1495146 C0.258333333,43.7893204 0.465,43.4805825 0.723333333,43.3262136 C12.9683333,36.3796117 18.3933333,33.4980583 20.9766667,26.5 C22.5266667,22.2805825 22.5783333,19.3475728 22.475,5.14563107 C22.475,4.93980583 22.5783333,4.73398058 22.785,4.63106796 L24.5416667,3.60194175 C24.7483333,3.44757282 25.0583333,3.65339806 25.0583333,3.91067961 C25.0066667,18.5242718 25.42,22.023301 23.405,27.4262136 C20.2533333,35.9679612 12.9683333,39.3126214 0.775,46.3106796 C0.516666667,46.3621359 0.258333333,46.207767 0.258333333,45.9504854" id="Path"/>
                </g>
                <path d="M78.9661017,33 C78.6101695,32.5421304 78.3050847,32.0842607 78,31.6263911 C81.1016949,28.5230525 82.0677966,26.1828299 82.0677966,22.4689984 L82.0677966,1.40699523 L83.7457627,1 L84,1 L84,22.3163752 C83.9491525,26.3354531 83.1864407,29.4387917 78.9661017,33" id="Path" fill="#54575A"/>
                <path d="M96.2937063,10.7464115 L103.006993,9.8923445 L103.006993,8.13397129 C103.006993,4.01435407 100.699301,2.75837321 97.5,2.75837321 C95.8741259,2.75837321 93.4615385,3.21052632 91.4685315,3.96411483 L91.2587413,2.15550239 C92.9370629,1.55263158 95.8216783,1 97.8146853,1 C101.748252,1 105,2.75837321 105,8.18421053 L105,21.5980861 L103.374126,21.8995215 L103.059441,21.8995215 L103.059441,19.1363636 L103.006993,19.1363636 C100.751748,20.7942584 98.4965035,22 95.6118881,22 C92.7797203,22 90,20.1411483 90,16.5741627 C90,13.8110048 91.7832168,11.3492823 96.2937063,10.7464115 M96.2412587,20.2416268 C98.3916084,20.2416268 100.699301,19.1363636 103.006993,17.4282297 L103.006993,11.4497608 L96.5034965,12.354067 C93.513986,12.8062201 92.0979021,14.3133971 92.0979021,16.423445 C92.0979021,18.5334928 93.6188811,20.2416268 96.2412587,20.2416268" id="Shape" fill="#54575A"/>
                <path d="M141,7.50847458 L141,22 L139.086806,22 L139.086806,8.16949153 C139.086806,4.30508475 137.777778,2.88135593 135.059028,2.88135593 C133.045139,2.88135593 130.779514,3.79661017 127.305556,6.18644068 C127.40625,6.69491525 127.456597,7.3559322 127.456597,8.01694915 L127.456597,21.9491525 L125.543403,21.9491525 L125.543403,7.81355932 C125.442708,4.20338983 124.133681,2.88135593 121.515625,2.88135593 C119.350694,2.88135593 117.538194,3.79661017 113.963542,6.13559322 L113.963542,21.9491525 L112,21.9491525 L112,1.61016949 L113.510417,1.20338983 L113.8125,1.20338983 L113.913194,4.30508475 C116.581597,2.37288136 119.25,1 121.767361,1 C124.184028,1 126.298611,1.91525424 127.104167,4.55932203 C130.175347,2.42372881 132.491319,1 135.361111,1 C138.885417,1.05084746 141,3.28813559 141,7.50847458" id="Path" fill="#54575A"/>
                <path d="M152.293706,10.7464115 L159.006993,9.8923445 L159.006993,8.13397129 C159.006993,4.01435407 156.699301,2.75837321 153.5,2.75837321 C151.874126,2.75837321 149.461538,3.21052632 147.468531,3.96411483 L147.258741,2.15550239 C148.937063,1.55263158 151.821678,1 153.814685,1 C157.748252,1 161,2.75837321 161,8.18421053 L161,21.5980861 L159.374126,21.8995215 L159.059441,21.8995215 L159.059441,19.1363636 L159.006993,19.1363636 C156.751748,20.7942584 154.496503,22 151.611888,22 C148.77972,22 146,20.1411483 146,16.5741627 C146,13.8110048 147.730769,11.3492823 152.293706,10.7464115 M152.241259,20.2416268 C154.391608,20.2416268 156.699301,19.1363636 159.006993,17.4282297 L159.006993,11.4497608 L152.503497,12.354067 C149.513986,12.8062201 148.097902,14.3133971 148.097902,16.423445 C148.097902,18.5334928 149.618881,20.2416268 152.241259,20.2416268" id="Shape" fill="#54575A"/>
                <path d="M95,62.8287037 C92.8150289,63.5416667 90.6300578,64 88.132948,64 C80.1734104,64 77,59.5694444 77,53.0509259 C77,46.2268519 81.3699422,42 88.4450867,42 C91.0982659,42 92.9190751,42.4583333 94.7398844,43.0185185 L94.3236994,47.3981481 C92.8150289,46.837963 90.6820809,46.2268519 88.4971098,46.2268519 C85.2716763,46.2268519 82.5144509,47.9074074 82.5144509,52.7962963 C82.5144509,58.1944444 85.2716763,59.7731481 88.7572254,59.7731481 C90.4219653,59.7731481 92.5549133,59.4166667 94.9479769,58.5 L94.9479769,62.8287037 L95,62.8287037 Z" id="Path" fill="#54575A"/>
                <path d="M98,53.025522 C98,46.6450116 101.382212,42 108.5,42 C115.567308,42 119,46.6450116 119,53.025522 C119,59.4060325 115.617788,64 108.5,64 C101.382212,64 98,59.4060325 98,53.025522 M103.350962,53.025522 C103.350962,57.6194896 105.117788,59.8143852 108.5,59.8143852 C111.882212,59.8143852 113.598558,57.5684455 113.598558,53.025522 C113.598558,48.4315545 111.831731,46.2366589 108.5,46.2366589 C105.117788,46.2366589 103.350962,48.4825986 103.350962,53.025522" id="Shape" fill="#54575A"/>
                <path d="M129.1,64 L124,64 L124,42.6793349 L127.8,42.0522565 L128.45,42.0522565 L128.85,44.8218527 C131.55,43.0451306 133.6,42 136.25,42 C139.85,42 143,43.9334917 143,49.5771971 L143,64 L137.9,64 L137.9,50.2042755 C137.9,47.3301663 136.75,46.3895487 135.1,46.3895487 C133.55,46.3895487 131.45,47.2256532 129.15,48.584323 L129.15,64 L129.1,64 Z" id="Path" fill="#54575A"/>
                <path d="M154.1,64 L149,64 L149,42.6793349 L152.8,42.0522565 L153.45,42.0522565 L153.85,44.8218527 C156.55,43.0451306 158.6,42 161.25,42 C164.85,42 168,43.9334917 168,49.5771971 L168,64 L162.9,64 L162.9,50.2042755 C162.9,47.3301663 161.75,46.3895487 160.1,46.3895487 C158.55,46.3895487 156.45,47.2256532 154.15,48.584323 L154.15,64 L154.1,64 Z" id="Path" fill="#54575A"/>
                <path d="M191.343085,62.5740741 C188.765957,63.4907407 186.087766,64 183.409574,64 C177.093085,64 173,60.6898148 173,52.8981481 C173,47.1944444 176.43617,42 183.106383,42 C189.726064,42 192,46.6342593 192,51.0138889 C192,52.4907407 191.898936,53.2546296 191.848404,54.1203704 L178.558511,54.1203704 C178.710106,58.7037037 181.236702,59.7731481 184.875,59.7731481 C186.99734,59.7731481 189.321809,59.212963 191.343085,58.2962963 L191.343085,62.5740741 Z M186.643617,50.6574074 C186.643617,48.1111111 185.835106,45.9212963 183.055851,45.9212963 C180.478723,45.9212963 178.912234,47.7546296 178.609043,50.6574074 L186.643617,50.6574074 Z" id="Shape" fill="#54575A"/>
                <path d="M213,62.8287037 C210.815029,63.5416667 208.630058,64 206.132948,64 C198.17341,64 195,59.5694444 195,53.0509259 C195,46.2268519 199.369942,42 206.445087,42 C209.098266,42 210.919075,42.4583333 212.739884,43.0185185 L212.323699,47.3981481 C210.815029,46.837963 208.682081,46.2268519 206.49711,46.2268519 C203.271676,46.2268519 200.514451,47.9074074 200.514451,52.7962963 C200.514451,58.1944444 203.271676,59.7731481 206.757225,59.7731481 C208.421965,59.7731481 210.554913,59.4166667 212.947977,58.5 L212.947977,62.8287037 L213,62.8287037 Z" id="Path" fill="#54575A"/>
                <path d="M224.14433,57.5139665 C224.14433,59.6256983 225.690722,59.877095 226.721649,59.877095 C227.752577,59.877095 229.195876,59.5251397 230.278351,59.2234637 L230.587629,63.1452514 C228.989691,63.6480447 227.082474,64 224.814433,64 C222.030928,64 218.886598,62.9944134 218.886598,58.3687151 L218.886598,46.9050279 L216,46.9050279 L216,43.5363128 L218.886598,42.9329609 L218.886598,37.9050279 L223.42268,37 L224.14433,37 L224.14433,42.8324022 L231,42.8324022 L231,46.8547486 L224.14433,46.8547486 L224.14433,57.5139665 Z" id="Path" fill="#54575A"/>
                <path d="M232.128205,39.9473684 L232.128205,36.5789474 L231,36.5789474 L231,36 L234.025641,36 L233.974359,36.5789474 L232.846154,36.5789474 L232.846154,39.9473684 L232.128205,39.9473684 Z M238.333333,39.9473684 L238.333333,36.4736842 L238.282051,36.4736842 L237.102564,40 L236.179487,40 L235,36.4736842 L234.948718,36.4736842 L234.948718,39.9473684 L234.282051,39.9473684 L234.282051,36 L235.564103,36 L236.641026,39.3684211 L237.717949,36 L239,36 L239,40 L238.333333,40 L238.333333,39.9473684 Z" id="Shape" fill="#54575A"/>
            </g>
        </g>
    </g>
</svg>