<svg id="a787d16b-c86c-4e3a-9258-ff40fee170ec" data-name="Layer 1" xmlns="http://www.w3.org/2000/svg" viewBox="0 0 587.395 67.154"><title>logo-klocwork</title><path d="M129.28,326.073l32.46-61.97s2.361-3.541,7.968-3.541h11.8l-30.69,59.609s-2.951,5.9-9.148,5.9Z" transform="translate(-103.155 -260.562)" fill="#2588b3"/><path d="M178.266,272.661h14.46l-12.394,23.312s-2.066,2.066,0,6.492l12.394,23.608H167.347s-5.9.885-8.262-5.9l-1.771-6.787Z" transform="translate(-103.155 -260.562)" fill="#0ebbee"/><path d="M142.264,292.727l-15.05,28.92-23.9-46.035s-1.18-2.951,2.951-2.951h22.132s3.542-.3,5.9,3.836Z" transform="translate(-103.155 -260.562)" fill="#dbdadc"/><path d="M195.986,272.661h15.036s-1.771.3-3.246,3.836L191.25,308.662s-2.066,4.132-4.721-.885l-4.427-9.148Z" transform="translate(-103.155 -260.562)" fill="#dbdadc"/><path d="M510.826,308.45q2.433-8.728,4.866-17.457c1.379-4.952,2.8-9.892,4.1-14.866.385-1.479,1-2.1,2.605-2.049,4,.116,8.013.038,12.275.038-2.69,8.846-5.274,17.362-7.871,25.873-2.45,8.033-4.959,16.048-7.335,24.1-.5,1.689-1.248,2.351-3.046,2.273-3.257-.142-6.528-.117-9.787,0-1.889.067-2.824-.444-3.419-2.454-2.939-9.941-6.094-19.819-9.182-29.717a6.817,6.817,0,0,0-1.5-2.8q-2.4,7.65-4.793,15.3c-1.809,5.808-3.662,11.6-5.364,17.442a2.627,2.627,0,0,1-3.091,2.226c-3.516-.128-7.045.05-10.559-.1a2.878,2.878,0,0,1-2.183-1.44c-5.141-16.528-10.175-33.089-15.218-49.647a4.6,4.6,0,0,1-.009-1.03c4.324,0,8.6-.071,12.859.09.534.02,1.278,1.189,1.5,1.948,2.9,10.132,5.718,20.286,8.565,30.433.2.713.46,1.41.887,2.706,2.976-9.06,5.755-17.513,8.527-25.968.747-2.28,1.571-4.541,2.178-6.858.46-1.759,1.26-2.56,3.2-2.422a65.489,65.489,0,0,0,7.725.012c1.651-.079,2.354.512,2.862,2.109,3.167,9.963,6.462,19.886,9.72,29.82.264.8.568,1.6.854,2.392Z" transform="translate(-103.155 -260.562)" fill="#525254"/><path d="M360.256,327.673c-16.106-.022-27.608-11.538-27.6-27.636.007-15.94,11.682-27.376,27.907-27.335,16.014.041,27.647,11.569,27.636,27.39C388.187,316.253,376.6,327.694,360.256,327.673ZM346.96,300.1c0,.687-.038,1.377.006,2.061.46,7.135,5.429,12.76,11.733,13.3,7.7.658,13.152-3.393,14.778-11.209a22.3,22.3,0,0,0,.353-6.39c-.821-9.4-9.093-15.128-17.695-12.389C350.492,287.266,346.917,292.931,346.96,300.1Z" transform="translate(-103.155 -260.562)" fill="#525254"/><path d="M593.967,300.153c.027,16.035-11.524,27.515-27.692,27.52s-27.818-11.486-27.835-27.444c-.017-15.979,11.608-27.507,27.763-27.531C582.4,272.674,593.94,284.086,593.967,300.153Zm-14.23-.662c-.012-.2-.025-1.149-.126-2.088-.648-6.025-4.5-10.7-9.973-12.125a12.874,12.874,0,0,0-13.952,4.817,18.361,18.361,0,0,0-.03,20.153c4.9,6.89,15.553,7.191,20.738.571C578.825,307.715,579.8,304.132,579.737,299.491Z" transform="translate(-103.155 -260.562)" fill="#525254"/><path d="M252.038,260.939h13.423v35.247l.616.255c.4-.634.843-1.242,1.182-1.9,3.088-6.03,6.239-12.029,9.183-18.129a3.6,3.6,0,0,1,3.949-2.339c3.934.151,7.878.045,12.175.045-.407.947-.65,1.637-.987,2.279-3.144,6-6.253,12.021-9.492,17.97a4.192,4.192,0,0,0-.011,4.683c4.614,8.031,9.057,16.161,13.555,24.259.451.81.86,1.644,1.576,3.022-3.506,0-6.661-.345-9.708.081-4.718.659-7.35-1.011-9.072-5.488-1.706-4.439-4.243-8.559-6.728-13.43-3.052,6.232-7.708,11.2-5.825,18.784-4.563,0-8.64.03-12.715-.052-.366-.007-.928-.7-1.027-1.15a12.146,12.146,0,0,1-.092-2.564q0-29.1,0-58.208Z" transform="translate(-103.155 -260.562)" fill="#525254"/><path d="M665.025,307.585c-2.071,3.893-4.116,7.193-5.584,10.733-.711,1.712-.468,3.877-.414,5.83.047,1.713-.591,2.252-2.242,2.2-3-.092-6.012-.1-9.012.008-1.771.065-2.427-.52-2.386-2.34.1-4.461.033-8.927.033-13.391v-49.62h13.451V296.16l.653.264c.433-.716.911-1.408,1.291-2.151,3.122-6.109,6.263-12.208,9.3-18.356a2.8,2.8,0,0,1,2.941-1.832c4.2.094,8.393.032,12.982.032-.539,1.125-.907,1.959-1.329,2.764-3.137,6.005-6.238,12.03-9.465,17.987a3.359,3.359,0,0,0,.027,3.744c4.692,8.284,9.278,16.627,13.893,24.955.4.731.761,1.49,1.382,2.711-5.292,0-10.211.057-15.124-.078-.562-.015-1.255-1.02-1.614-1.708-2.462-4.713-4.847-9.466-7.268-14.2C666.164,309.549,665.728,308.834,665.025,307.585Z" transform="translate(-103.155 -260.562)" fill="#525254"/><path d="M444.936,318.107c-5.471,8.276-18.206,11.762-29.639,8.248-11.817-3.632-18.859-13.7-18.733-26.791.119-12.375,7.52-22.261,19.21-25.662,11.282-3.282,24.021.3,29.134,8.314l-8.675,8.132c-3.44-4.455-8.043-6.053-13.409-5.372A13.24,13.24,0,0,0,414,289.792c-4.953,6.008-4.414,16.6,1.129,21.99,5.6,5.444,13.531,4.877,21.261-1.656Z" transform="translate(-103.155 -260.562)" fill="#525254"/><path d="M321.968,326.157H308.576V261h13.392Z" transform="translate(-103.155 -260.562)" fill="#525254"/><path d="M635.862,273.733c0,4.5-.024,8.177.011,11.857.014,1.533-.974,1.536-2.067,1.564-2.828.072-5.664.07-8.481.3-5.616.463-8.624,3.548-8.706,9.158-.129,8.834-.064,17.671-.081,26.507,0,.926,0,1.852,0,3.159-4.395,0-8.56.038-12.721-.06-.4-.009-1.116-.863-1.113-1.321.084-10.971-.321-21.987.566-32.9.764-9.409,6.893-15.192,16.137-16.9C624.65,274.132,630.08,274.177,635.862,273.733Z" transform="translate(-103.155 -260.562)" fill="#525254"/></svg>